<?xml version="1.0" encoding="UTF-8"?>
<svg fill="none" viewBox="0 0 35 35" xmlns="http://www.w3.org/2000/svg">
<path d="m13.864 6.8978c-0.0938-0.55625-0.1644-1.1062-0.21-1.6562-0.0688-0.825-0.0263-1.6563-0.0507-2.4813-0.0106-0.35-0.0525-1.2625-0.0356-1.3937 0.1531-1.1438 1.0762-1.3188 1.3462-1.35 0.1307-0.01875 1.4719-0.16868 1.7613 1.3188 0.355 1.8188 0.4688 3.65 0.3431 5.4437 0.2932 1.525 0.7944 3.0437 1.4563 4.4188 2.6337 5.4687 7.6525 6 13.09 5.95 0.8362-0.0125 1.5306 0.6437 1.5744 1.475 0.0437 0.8375-0.5788 1.5625-1.4113 1.6375-3.0394 0.2937-8.4319 2.7312-10.296 5.2687-0.39 0.5313-0.6168 1.8126-0.9168 3.0688-0.4188 1.7438-0.9169 3.4687-1.475 4.1937-0.0838 0.1125-1.1019 1.2626-1.4057 1.4313-0.73 0.4-1.3143 0.1687-1.6462-0.0438s-0.7075-0.6312-0.8575-1.325c-0.1569-0.725-0.0244-2.2125-0.0487-2.5312-0.0888-1.1563-0.32-3.425-0.7919-5.375-0.2544-1.05-0.5256-2.0188-0.9744-2.5-1.6612-1.7813-4.3175-1.5188-6.5544-1.225-0.25687 0.0312-0.51374 0.0688-0.76999 0.1-0.91063 0.2688-1.8775 0.4687-2.8994 0.5875-1.5431 0.1812-1.7969-1.2375-1.8106-1.3313-0.02875-0.2062-0.13564-1.2687 1.0275-1.6937 0.12687-0.0438 1.0631-0.25 1.4238-0.3313 0.5025-0.1125 1.0106-0.1999 1.5206-0.2812 5.2681-1.6375 8.1294-6.2375 8.6113-11.375zm1.8081 5.6813c1.9887 4.1125 5.0068 6.0999 8.5843 6.9999h-6e-4c-2.2337 1.1688-4.2656 2.6313-5.3425 4.1001-0.4087 0.5562-0.7837 1.6749-1.1218 2.9312-0.1832-1.1688-0.4307-2.4125-0.7575-3.475-0.3719-1.2125-0.8726-2.2187-1.4313-2.8187-1.0788-1.1563-2.4325-1.8-3.8881-2.1188 1.7425-1.5437 3.0637-3.4687 3.9575-5.6187z" clip-rule="evenodd" fill="#A5F8D3" fill-rule="evenodd"/>
</svg>
