<?xml version="1.0" encoding="UTF-8"?>
<svg fill="none" viewBox="0 0 302 69" xmlns="http://www.w3.org/2000/svg">
<g clip-path="url(#a)">
<path d="m106.73 67v-11.167l21.833-20.917v-1.25h-21.333v-10.667h38.333v11.083l-22 21v1.1667h22.25v10.75h-39.083zm44.759 0v-11.167l21.833-20.917v-1.25h-21.333v-10.667h38.333v11.083l-22 21v1.1667h22.25v10.75h-39.083zm47.092 0v-60h13.167v60h-13.167zm44.517 1.1667c-3.666 0-6.944-0.4723-9.833-1.4167-2.889-1-5.361-2.4444-7.417-4.3333-2-1.8889-3.527-4.2223-4.583-7-1.055-2.7778-1.583-5.9723-1.583-9.5834 0-3.5 0.5-6.7222 1.5-9.6666 1.055-2.9445 2.528-5.4723 4.416-7.5834 1.945-2.1666 4.306-3.8333 7.084-5 2.833-1.1666 6-1.75 9.5-1.75 3.555 0 6.666 0.5834 9.333 1.75 2.722 1.1111 4.945 2.7778 6.667 5 1.778 2.2223 3.083 4.9445 3.916 8.1667 0.834 3.1667 1.112 6.8056 0.834 10.917l-34.417 0.25v-7l26.75-0.25-4.75 3.25c0.389-2.7778 0.222-5.0278-0.5-6.75-0.722-1.7778-1.778-3.0556-3.167-3.8334-1.388-0.8333-2.888-1.25-4.5-1.25-1.944 0-3.666 0.5278-5.166 1.5834-1.445 1.0555-2.584 2.5833-3.417 4.5833s-1.25 4.4444-1.25 7.3333c0 4.5556 0.972 7.8611 2.917 9.9167 2 2.0556 4.528 3.0833 7.583 3.0833 1.5 0 2.75-0.1944 3.75-0.5833 1-0.4444 1.806-0.9722 2.417-1.5833 0.666-0.6667 1.166-1.3889 1.5-2.1667 0.389-0.7778 0.694-1.5278 0.916-2.25l11.667 2.5c-0.444 2.0556-1.167 3.9167-2.167 5.5833-0.944 1.6667-2.25 3.1111-3.916 4.3334-1.611 1.2222-3.584 2.1389-5.917 2.75-2.278 0.6666-5 1-8.167 1zm27.993-1.1667v-44h11l0.25 14.917h1.667c0.389-3.8889 1.111-6.9723 2.167-9.25 1.111-2.3334 2.666-4.0278 4.666-5.0834 2.056-1.0555 4.584-1.5833 7.584-1.5833 0.444 0 0.944 0.0278 1.5 0.0833 0.555 0 1.194 0.0556 1.916 0.1667l-0.5 14.333c-0.889-0.4444-1.861-0.7222-2.916-0.8333-1-0.1667-1.889-0.25-2.667-0.25-2.167 0-4.056 0.4167-5.667 1.25-1.555 0.8333-2.805 2.1111-3.75 3.8333-0.889 1.7223-1.472 3.8889-1.75 6.5v19.917h-13.5z" fill="#fff"/>
<path d="m23.334 0.58818c3.6366-0.006044 7.2732-0.010585 10.91-0.013367 1.6888-0.001327 3.3776-0.003134 5.0663-0.006096 1.4731-0.002583 2.9461-0.004239 4.4191-0.004812 0.779-3.34e-4 1.558-0.001113 2.337-0.003003 0.7353-0.00177 1.4706-0.002288 2.206-0.001903 0.2678-7.1e-5 0.5356-5.73e-4 0.8034-0.001574 7.0718-0.025106 14.423 1.5625 19.666 6.6097 0.0678 0.06379 0.1356 0.12758 0.2055 0.1933 4.5855 4.3253 7.0925 10.515 7.3046 16.784 0.0558 2.5854-0.2133 5.1728-0.9312 7.6618-0.0292 0.1017-0.0584 0.2035-0.0885 0.3083-1.769 6.0077-5.6245 10.977-11.126 14.001-1.2594 0.6546-1.2594 0.6546-1.8146 0.6546 0.0517 0.058 0.1034 0.116 0.1567 0.1758 0.4372 0.4947 0.8629 0.9962 1.2784 1.5092 0.4779 0.588 0.9694 1.1624 1.4674 1.7334 0.5773 0.6621 1.1403 1.3328 1.6931 2.0156 0.3741 0.4529 0.7588 0.8957 1.1448 1.3384 0.5799 0.665 1.1463 1.3383 1.7017 2.0241 0.3511 0.4272 0.7108 0.8465 1.0718 1.2653 0.4585 0.5321 0.9117 1.0671 1.3545 1.6125 0.5659 0.6967 1.1496 1.377 1.7349 2.0574 0.8056 0.9367 1.6057 1.8778 2.385 2.8365 0.5189 0.6377 1.0516 1.2628 1.5885 1.8855 0.123 0.1427 0.2458 0.2856 0.3683 0.4287 0.1225 0.1426 0.2456 0.2847 0.3694 0.4262 0.4553 0.5284 0.4553 0.5284 0.4553 0.8151-2.3784 0.0423-4.7566 0.074-7.1353 0.0935-1.1046 0.0093-2.2089 0.022-3.3134 0.0427-0.9632 0.0181-1.9263 0.0297-2.8896 0.0337-0.5097 0.0023-1.019 0.0078-1.5285 0.021-3.3464 0.0835-3.3464 0.0835-4.1619-0.5798-0.3488-0.3619-0.607-0.7494-0.8409-1.1928-0.1949-0.3493-0.4533-0.6399-0.7137-0.9419-0.092-0.1132-0.1839-0.2264-0.2787-0.3431-0.3301-0.4027-0.666-0.8-1.0032-1.1968-0.5316-0.6256-1.0539-1.2579-1.5722-1.8946-0.3914-0.4761-0.7903-0.9456-1.1896-1.4151-0.3806-0.4483-0.7543-0.9014-1.1243-1.3584-0.3725-0.4581-0.7552-0.9019-1.1529-1.3383-0.4621-0.5076-0.8925-1.0318-1.3172-1.5707-0.3424-0.4248-0.6967-0.8381-1.0531-1.2512-0.459-0.5318-0.9125-1.0664-1.3545-1.6125-0.529-0.6513-1.0767-1.2848-1.6275-1.9176-0.8893-1.0222-1.7678-2.0529-2.6214-3.1052-0.5994-0.7362-1.2215-1.4515-1.8448-2.1673-0.4034-0.4633-0.8036-0.9294-1.2028-1.3963-0.6222-0.7275-1.2483-1.4517-1.8768-2.1738-0.0656-0.0755-0.1312-0.151-0.1987-0.2288-0.0571-0.0655-0.1141-0.131-0.1729-0.1985-0.2858-0.3342-0.5662-0.6729-0.8475-1.0108-1e-4 0.1058-2e-4 0.2116-3e-4 0.3206-0.0019 2.5822-0.0074 5.1644-0.0168 7.7466-0.0044 1.2488-0.0077 2.4975-0.0082 3.7463-4e-4 1.0893-3e-3 2.1785-0.0083 3.2678-0.0028 0.576-0.0044 1.152-0.0034 1.728 1e-3 0.5438-0.0011 1.0875-0.0054 1.6314-1e-3 0.198-1e-3 0.396 2e-4 0.5939 0.0124 2.2129-0.5318 4.1308-2.0626 5.801-1.4833 1.4309-3.4676 2.1116-5.5061 2.1975-2.0909-0.0715-3.9353-1.0249-5.3716-2.523-1.1947-1.5211-1.7851-3.3384-1.7713-5.256-7e-4 -0.221-7e-4 -0.221-0.0015-0.4465-0.0012-0.4909 4e-4 -0.9819 0.0019-1.4728-1e-4 -0.3531-8e-4 -0.7062-0.0015-1.0593-0.0012-0.759-1e-3 -1.518 0-2.277 0.0015-1.0985 3e-4 -2.1969-0.0016-3.2954-0.0031-1.784-0.0048-3.5679-0.0053-5.3519 0-0.1066-1e-4 -0.2132-1e-4 -0.3231-3e-4 -1.1901-4e-4 -2.3803-3e-4 -3.5704 1e-4 -0.4319 1e-4 -0.8638 1e-4 -1.2957 1e-4 -0.1066 1e-4 -0.2132 1e-4 -0.323 1e-4 -1.7779-0.0019-3.5557-0.0053-5.3336-0.0021-1.0956-0.0024-2.1912-4e-4 -3.2868 0.0012-0.7506 6e-4 -1.5011-0.0014-2.2517-0.0012-0.4328-0.0012-0.8655 5e-4 -1.2983 0.0018-0.4696 3e-4 -0.9391-0.0019-1.4087 0.0013-0.1361 0.0025-0.2723 0.0038-0.4125-0.0079-0.808-0.1151-1.4293-0.5841-2.1012-0.5664-0.5381-1.0439-0.8064-1.8267-0.8049-0.1327-5e-4 -0.2654-1e-3 -0.4021-0.0015-0.2142 8e-4 -0.2142 8e-4 -0.4328 0.0017-0.304-2e-3 -0.6081-0.0041-0.9121-0.0063-0.4781-0.0022-0.9561-0.0033-1.4342-0.0024-0.4623 3e-4 -0.9244-0.0033-1.3866-0.0075-0.1413 0.0014-0.2826 0.0027-0.4281 4e-3 -1.0958-0.0138-2.0055-0.2598-2.7878-1.0616-0.5142-0.8356-0.5481-1.5277-0.4515-2.5075 0.3424-0.7531 1.0031-1.3906 1.7815-1.685 0.7291-0.199 1.4826-0.159 2.2325-0.1584 0.1692-9e-4 0.3384-0.0017 0.5127-0.0026 0.4625-0.0023 0.925-0.0029 1.3875-0.0031 0.29-2e-4 0.5799-7e-4 0.8698-0.0014 1.0145-0.0024 2.0289-0.0034 3.0433-0.0032 0.9407 1e-4 1.8813-0.0026 2.8219-0.0067 0.8112-0.0034 1.6223-0.0047 2.4335-0.0046 0.4829 1e-4 0.9657-6e-4 1.4485-0.0034 5.2402-0.0278 5.2402-0.0278 7.1778 1.686 1.3845 1.4593 1.6178 3.3619 1.6039 5.2846 1e-4 0.1398 1e-4 0.2797 2e-4 0.4238-2e-4 0.4565-0.0022 0.9129-0.0042 1.3694-5e-4 0.3188-9e-4 0.6376-0.0012 0.9565-9e-4 0.8347-0.0035 1.6693-0.0063 2.504-0.0027 0.8536-0.0038 1.7071-0.0051 2.5606-0.0028 1.6714-0.0071 3.3429-0.0126 5.0143 1.644-0.0079 3.2881-0.0179 4.9321-0.0304 0.7636-0.0058 1.5272-0.0108 2.2908-0.0143 0.7386-0.0034 1.4772-0.0086 2.2157-0.0151 0.2801-0.0021 0.5602-0.0036 0.8403-0.0044 1.6467-0.0053 3.204-0.0948 4.8138-0.4518 0.1691-0.0371 0.1691-0.0371 0.3417-0.075 1.9182-0.4564 3.6067-1.3095 5.0763-2.634 0.0816-0.0726 0.1633-0.1453 0.2474-0.2202 2.1029-1.9822 3.2863-5.06 3.3932-7.9021 0.0783-3.3198-0.8574-6.4224-3.1246-8.9054-2.2397-2.3098-5.475-3.2902-8.6295-3.3661-0.6205-0.0069-1.241-0.0064-1.8615-0.0062-0.2383-4e-4 -0.4766-8e-4 -0.7149-0.0013-0.511-1e-3 -1.0221-0.0017-1.5332-0.0021-0.8089-8e-4 -1.6178-0.0029-2.4268-0.0054-0.2775-8e-4 -0.5551-0.0016-0.8327-0.0024-0.1389-4e-4 -0.2778-8e-4 -0.421-0.0012-1.8817-0.0055-3.7633-0.0097-5.645-0.0113-1.2716-0.0011-2.5432-4e-3 -3.8149-9e-3 -0.672-0.0025-1.3439-0.0041-2.0159-0.0035-0.6319 6e-4 -1.2638-0.0012-1.8957-0.0047-0.2312-9e-4 -0.4624-9e-4 -0.6936 0-1.5995 0.0058-2.9033-0.0978-4.1181-1.2388-0.7475-0.824-1.0208-1.5554-1.0154-2.6602v-0.30519c1e-4 -0.33294 0.0011-0.66587 0.0021-0.99881 2e-4 -0.23082 4e-4 -0.46164 5e-4 -0.69246 5e-4 -0.60758 0.0018-1.2152 0.0032-1.8227 0.0013-0.61997 0.0019-1.2399 0.0026-1.8599 0.0014-1.2165 0.0036-2.433 0.0063-3.6495z" fill="#fff"/>
<path d="m45.006 18.132c0.3945 0.1433 0.739 0.346 1.0964 0.5644 0.1005 0.0586 0.2009 0.1171 0.3043 0.1775 0.3085 0.1805 0.6148 0.3642 0.9212 0.5481 0.1762 0.1034 0.3526 0.2066 0.5291 0.3094 0.355 0.2072 0.7092 0.4157 1.0627 0.6253 0.5698 0.3375 1.1418 0.6711 1.7141 1.0042 0.3952 0.2301 0.79 0.4608 1.1849 0.6915 0.5339 0.3119 1.0688 0.622 1.6044 0.9312 0.2553 0.1484 0.5106 0.2969 0.7659 0.4454 0.118 0.0676 0.2359 0.1351 0.3574 0.2048 1.3425 0.7844 1.3425 0.7844 1.6824 1.4641 0.0542 0.61-0.0344 0.9225-0.387 1.419-0.2655 0.2008-0.2655 0.2008-0.5724 0.3714-0.1149 0.0652-0.2298 0.1304-0.3482 0.1976-0.1828 0.1015-0.1828 0.1015-0.3694 0.205-0.2474 0.1433-0.4946 0.2869-0.7417 0.4308-0.2687 0.1548-0.5374 0.3095-0.8062 0.4641-0.2216 0.1276-0.4432 0.2553-0.6648 0.3829-0.1522 0.0877-0.3044 0.1753-0.4566 0.2629-0.6604 0.3802-1.3204 0.7612-1.9801 1.1426-0.2802 0.1616-0.5605 0.3229-0.8411 0.4837-0.6663 0.3823-1.3289 0.7687-1.9848 1.1685-0.1211 0.0726-0.2422 0.1452-0.3669 0.2199-0.2243 0.1346-0.4474 0.2713-0.6688 0.4106-0.7102 0.4219-1.3667 0.6286-2.1958 0.4519-0.3677-0.2758-0.5691-0.6222-0.774-1.032-0.0148-0.398-0.0217-0.7932-0.0228-1.1913-9e-4 -0.1236-0.0017-0.2472-0.0026-0.3745-0.0026-0.4101-0.0041-0.8202-0.0053-1.2303-6e-4 -0.1399-0.0011-0.2797-0.0016-0.4238-0.0027-0.7401-0.0046-1.4802-0.0058-2.2204-0.0014-0.7652-0.0058-1.5304-0.011-2.2955-0.0033-0.5878-0.0044-1.1755-0.0049-1.7633-6e-4 -0.2821-0.0021-0.5642-0.0045-0.8463-0.0031-0.3947-3e-3 -0.7892-0.0021-1.1839-0.0017-0.1167-0.0033-0.2334-5e-3 -0.3536 0.0044-0.537 0.0201-0.8152 0.3113-1.2799 0.5132-0.4803 1.0132-0.4654 1.6893-0.382z" fill="#FF35A2"/>
<path d="m15.106 12.75c2.0711 0 3.75-1.6789 3.75-3.75 0-2.0711-1.6789-3.75-3.75-3.75-2.071 0-3.75 1.6789-3.75 3.75 0 2.0711 1.679 3.75 3.75 3.75z" fill="#FF35A2"/>
<path d="m93.231 16.5c4.4874 0 8.1246-3.078 8.1246-6.875 0-3.797-3.6372-6.875-8.1246-6.875-4.4873 0-8.125 3.078-8.125 6.875 0 3.797 3.6377 6.875 8.125 6.875z" fill="#fff"/>
<path d="m3.2314 16.5c1.7259 0 3.125-1.3991 3.125-3.125s-1.3991-3.125-3.125-3.125c-1.7259 0-3.125 1.3991-3.125 3.125s1.3991 3.125 3.125 3.125z" fill="#FF35A2"/>
<path d="m14.481 4c1.0356 0 1.875-0.83947 1.875-1.875s-0.8394-1.875-1.875-1.875c-1.0355 0-1.875 0.83947-1.875 1.875s0.8395 1.875 1.875 1.875z" fill="#FF35A2"/>
<path d="m100.11 22.75h-13.75v43.75h13.75v-43.75z" fill="#fff"/>
</g>
<defs>
<clipPath id="a">
<rect width="302" height="69" fill="#fff"/>
</clipPath>
</defs>
</svg>
