<?xml version="1.0" encoding="UTF-8"?>
<svg fill="none" viewBox="0 0 92 6" xmlns="http://www.w3.org/2000/svg">
<path d="m38.988 1.4143c-4.26 0.15871-8.4701 0.35386-12.576 0.56721-5.8119 0.30182-11.621 0.61404-17.396 1.1084-1.8177 0.15611-3.6636 0.25497-5.4699 0.45011-1.1339 0.12229-2.6374 0.29659-2.8348 0.33301-0.10321 0.02082-0.14823 0.05207-0.16278 0.06248-0.1023 0.07285-0.083631 0.14307-0.02589 0.19771 0.023187 0.02341 0.081821 0.08068 0.24459 0.08848 10.885 0.53338 22.016-0.50735 32.915-0.61663 18.9-0.18733 38.373 0.55679 57.122 2.1803 0.1637 0.01301 0.3228-0.05205 0.3455-0.14832 0.0273-0.09367-0.0909-0.18473-0.2545-0.19774-18.782-1.6262-38.286-2.3729-57.223-2.183-10.157 0.10147-20.514 1.0147-30.685 0.70251 0.23369-0.02601 0.46285-0.05204 0.67199-0.07546 1.7991-0.19514 3.6372-0.2914 5.4476-0.44751 5.7622-0.49435 11.56-0.80657 17.364-1.1058 7.2017-0.37467 14.717-0.6973 22.292-0.8482 2.7097 0.02341 5.4103 0.04684 8.111 0.07546 5.8422 0.06245 11.712 0.24458 17.54 0.48915 1.755 0.07545 3.5099 0.1535 5.2649 0.22115 0.5819 0.02341 2.0823 0.09105 2.2914 0.08585 0.2592-0.00521 0.3092-0.13008 0.3137-0.1509 0.0136-0.04683 0.0045-0.11188-0.1228-0.16652-0.0136-0.0078-0.0954-0.03384-0.2773-0.04945-10.598-0.92105-21.914-1.0745-33.112-0.85338-11.812-0.09627-23.669-0.13792-35.451-0.18215-0.1687 0-0.3064 0.078068-0.3078 0.17434-9e-4 0.09626 0.135 0.17433 0.3037 0.17694 8.5311 0.03122 17.105 0.06242 25.671 0.11186z" clip-rule="evenodd" fill="#FF35A2" fill-rule="evenodd"/>
</svg>
